<?xml version="1.0" encoding="utf-8"?>
<!-- Generator: Adobe Illustrator 19.0.0, SVG Export Plug-In . SVG Version: 6.00 Build 0)  -->
<svg version="1.1" id="Layer_1" xmlns="http://www.w3.org/2000/svg" xmlns:xlink="http://www.w3.org/1999/xlink" x="0px" y="0px"
	 viewBox="0 0 255 255" style="enable-background:new 0 0 255 255;" xml:space="preserve">
<style type="text/css">
	.st0{fill:#9BDDE9;}
	.st1{fill:#F0762B;}
	.st2{fill:#FF6600;}
	.st3{fill:#CC6600;}
	.st4{fill:#FCE8B5;}
	.st5{fill:#66FFFF;}
	.st6{fill:#FCE7B5;}
	.st7{fill:#FAFCFC;}
</style>
<g id="XMLID_1_">
	<path id="XMLID_21_" class="st0" d="M-147.9,146.5L-147.9,146.5c-4.7,0-8.5-3.8-8.5-8.5v-38c0-4.7,3.8-8.5,8.5-8.5h0
		c4.7,0,8.5,3.8,8.5,8.5v38C-139.4,142.7-143.2,146.5-147.9,146.5z"/>
	<g id="XMLID_23_">
		<path id="XMLID_35_" class="st0" d="M-70.2,144.9L-70.2,144.9c-9.4,0-17-7.6-17-17V98.4c0-4.7,3.8-8.5,8.5-8.5h0
			c4.7,0,8.5,3.8,8.5,8.5V144.9z"/>
		<path id="XMLID_34_" class="st0" d="M-32.2,127.9v17h-38c-9.4,0-17-7.6-17-17v0H-32.2z"/>
		<path id="XMLID_32_" class="st0" d="M-32.2,144.9h-17V98.4c0-4.7,3.8-8.5,8.5-8.5h0c4.7,0,8.5,3.8,8.5,8.5V144.9z"/>
		<path id="XMLID_31_" class="st0" d="M-49.2,183L-49.2,183l0-55h17v38C-32.2,175.4-39.8,183-49.2,183z"/>
		<path id="XMLID_30_" class="st0" d="M-32.2,166L-32.2,166c0,9.4-7.6,17-17,17h-12.6c-4.7,0-8.5-3.8-8.5-8.5v0
			c0-4.7,3.8-8.5,8.5-8.5H-32.2z"/>
	</g>
	<path id="XMLID_14_" d="M-250.8,197.2h-8c-1.3,0-2.4-0.7-2.4-1.9c0-1.3,1.1-1.9,2.4-1.9h12.1c1.2,0,2.1,0.5,2.1,2.1
		c0,0.6-0.2,1.2-0.6,1.6l-10.5,12.5h8.9c1.3,0,2.4,0.7,2.4,1.9c0,1.3-1.1,1.9-2.4,1.9h-12.4c-1.7,0-2.7-0.6-2.7-2.3
		c0-0.7,0.3-1.3,0.8-1.8L-250.8,197.2z"/>
	<path id="XMLID_12_" d="M-205,197.2h-4.3c-1.3,0-2.4-0.7-2.4-1.9c0-1.3,1.1-1.9,2.4-1.9h13.2c1.3,0,2.4,0.7,2.4,1.9
		c0,1.3-1.1,1.9-2.4,1.9h-4.3v14.3c0,1.4-0.9,2.3-2.3,2.3s-2.3-0.9-2.3-2.3V197.2z"/>
	<path id="XMLID_6_" d="M-160.9,196.1c0-2,1.1-2.7,2.7-2.7h10.8c1.3,0,2.3,0.4,2.3,1.8c0,1.5-1,1.8-2.3,1.8h-8.9v4.4h7.8
		c1.2,0,2.1,0.3,2.1,1.8c0,1.4-0.9,1.8-2.1,1.8h-7.8v4.9h9.1c1.3,0,2.3,0.4,2.3,1.8c0,1.5-1,1.8-2.3,1.8h-11c-1.6,0-2.7-0.6-2.7-2.7
		V196.1z"/>
	<path id="XMLID_5_" d="M-102.3,192.9c5.3,0,8.1,3.3,8.1,5.3c0,1.3-0.7,2.1-2.1,2.1c-2.7,0-1.9-3.6-6.1-3.6c-2.9,0-5.3,2.5-5.3,6.8
		c0,3.7,1.5,6.8,5.4,6.8c3.6,0,3.5-3.9,5.7-3.9c1.1,0,2.2,0.6,2.2,1.8c0,2.9-3.5,5.8-8,5.8c-6.3,0-10-3.6-10-10.5
		C-112.2,197.8-108.8,192.9-102.3,192.9z"/>
	<path id="XMLID_3_" d="M-61.5,195.5c0-1.4,0.9-2.3,2.3-2.3c1.4,0,2.3,0.9,2.3,2.3v5.7h8.3v-5.7c0-1.4,0.9-2.3,2.3-2.3
		c1.4,0,2.3,0.9,2.3,2.3v16.3c0,1.4-0.9,2.3-2.3,2.3c-1.4,0-2.3-0.9-2.3-2.3v-6.7h-8.3v6.7c0,1.4-0.9,2.3-2.3,2.3
		c-1.4,0-2.3-0.9-2.3-2.3V195.5z"/>
	<path id="XMLID_25_" class="st1" d="M-237.6,52.5c1.2,2.8,3,5.2,9,5.1l45.9-0.3L-206,82.9c-2.8,3-2.7,7.7,0.2,10.7l0,0
		c3.2,3.2,8.3,3,11.3-0.3l32.5-37c2-2.3,2.7-5.8,1.4-8.8c-1.3-3-4.4-4.8-7.5-4.8l-58.5-0.7c-3.7-0.1-5.7,0.5-7.4,1.3
		C-237.5,44.8-239.1,48.9-237.6,52.5z"/>
	<path id="XMLID_27_" d="M-223.1,80.9l1.7,1.7C-221.9,81.9-222.5,81.3-223.1,80.9z"/>
	<path id="XMLID_29_" class="st1" d="M-279.1,140c1.3,3,4.4,4.8,7.5,4.8l58.5,0.7c3.8,0.1,5.8-0.6,7.5-1.3c3.5-1.6,5.1-5.8,3.4-9.4
		c-1.2-2.7-3-5-8.9-4.9l-46,0.3l22.6-24.8c2.8-3,2.7-7.7-0.2-10.6l0,0c-3.1-3.2-8.3-3-11.3,0.3l-31.8,36.2
		C-279.7,133.6-280.5,137.1-279.1,140z"/>
	<path id="XMLID_33_" class="st0" d="M-258.4,64.6c0.6,1.3,1.6,2.4,2.7,3.5l18.4,18.5l11,11.1l32.5,32.8c1.6,1.6,4.1,4.1,8.8,2
		c2.7-1.2,5.2-5,3.5-8.8c-0.6-1.3-1.6-2.4-2.7-3.5l-18-18.1l-11-11.1l-8.2-8.3l-1.7-1.7l-23-23.1c-1.6-1.6-4.1-4-8.7-2
		C-257.6,57-260.1,60.8-258.4,64.6z"/>
	<path id="XMLID_16_" class="st1" d="M-125,62.3h-20.8c-6.3,0-11.4-3.4-11.4-9.8s5.1-9.8,11.4-9.8h63.6c6.3,0,11.4,3.4,11.4,9.8
		s-5.1,9.8-11.4,9.8h-20.8v73.1c0,7-4.3,11.7-11,11.7c-6.7,0-11-4.7-11-11.7V62.3z"/>
</g>
<g id="XMLID_3620_">
	<path id="XMLID_3791_" class="st2" d="M176.4,166.7c-4.5,3.4-9,6.7-14,9.2c-11.9-7.6-24.3-14.5-36.8-21.1
		c-19.3-10.1-39.5-18.4-59.8-26.2c-5.1-2-10.2-4-15.5-5.1c1.7-4.3,3.6-8.5,5.7-12.5c0.9,0.3,1.9,0.5,2.8,0.8
		c22.6,8,44.8,17,66.4,27.6c1.1,0.5,2,1.4,3.3,1.2l0,0c0.2,0.2,0.3,0.3,0.5,0.5c3.7,2.1,6.7,5.3,10.5,7.3c1,1.5,2.4,2.3,4,2.9
		c0.3,0.3,0.5,0.7,0.8,0.9c4.4,3,8.8,5.9,13.5,8.4C163.6,163.6,169.5,166.6,176.4,166.7z"/>
	<path id="XMLID_3790_" class="st2" d="M42.4,142c1.6-4.3,3.3-8.5,5.3-12.6c2.5,0.8,5,1.7,7.5,2.5c12.4,4.2,24.5,9.3,36.5,14.5
		c11.9,5.1,23.6,10.6,35.1,16.6c10,5.3,19.7,10.9,29.4,16.7c-2.9,2.8-6.6,4.4-9.9,6.6c-0.9,0.6-1.9,1.1-2.9,1.6
		c-8-4.8-16.1-9.4-24.3-13.7c-12.5-6.6-25.5-12.3-38.4-18C68.2,150.9,55.4,146,42.4,142z"/>
	<path id="XMLID_3789_" class="st2" d="M35.1,160.9c1.3-4.4,2.9-8.6,4.9-12.7c3.1,1,6.3,2,9.4,3.1c11.8,4.1,23.2,8.9,34.7,13.8
		c18.2,7.8,35.8,16.7,52.8,26.8c-4.3,3.1-8.8,5.7-13.6,7.9c-5.1-2.8-10.2-5.8-15.4-8.5c-12.7-6.7-25.8-12.3-38.9-18
		C57.9,168.5,46.6,164.2,35.1,160.9z"/>
	<path id="XMLID_3788_" class="st2" d="M116.5,203.5c-4.4,3.1-9.3,5.4-14.1,7.8c-1.3-0.7-2.5-1.5-3.8-2.2
		c-11.8-6.2-24-11.6-36.2-16.9c-11.1-4.8-22.4-9.2-34.1-12.5c1-4.4,2.6-8.6,4.4-12.7c7.7,2.2,15.3,4.9,22.7,7.9
		C76.3,183.3,96.9,192.4,116.5,203.5z"/>
	<path id="XMLID_3787_" class="st2" d="M22,198.6c0.7-4.4,2.4-8.5,4-12.6c6.4,1.7,12.5,4.1,18.7,6.3c10.9,4,21.4,8.8,31.9,13.6
		c6.3,2.9,12.6,5.7,18.5,9.2c-4.8,2.8-9.9,5.2-15,7.4c-8.2-4.2-16.5-7.9-24.9-11.6C44.4,206.1,33.3,201.9,22,198.6z"/>
	<path id="XMLID_3786_" class="st3" d="M74.3,74.3c0.3-2.3,1.9-3.2,4-3.3c4.4-0.3,8.4,1.3,12.2,3.1c8.4,3.9,16.2,8.8,23.6,14.4
		c0.1,1.6-0.4,3-0.9,4.5c-3,7.9-8.7,13.6-15.6,18.2c-0.3-0.2-0.7-0.4-1-0.7c-6.3-6.9-12.4-14.1-17.2-22.1
		C76.8,84,74.1,79.7,74.3,74.3z"/>
	<path id="XMLID_3785_" class="st4" d="M156.2,179.8c-9.7-5.7-19.4-11.4-29.4-16.7c-11.5-6-23.2-11.5-35.1-16.6
		c-12-5.2-24.1-10.3-36.5-14.5c-2.5-0.8-5-1.7-7.5-2.5c0.5-2.1,1.4-4,2.5-5.9c5.4,1.1,10.4,3.2,15.5,5.1
		c20.3,7.8,40.5,16.1,59.8,26.2c12.5,6.5,24.9,13.4,36.8,21.1C160.7,177.9,158.7,179.2,156.2,179.8z"/>
	<path id="XMLID_3784_" class="st3" d="M118.5,91.7c9.1,6.7,17.6,14,25.7,21.9c-2.2,2.5-5.1,4.1-7.9,5.7c-7.4,4.2-15.5,6-23.8,6.8
		c-0.5-0.3-0.9-0.6-1.4-0.9c-0.5-1.2-1.5-1.8-2.4-2.6c-2.7-2.5-5.7-4.8-7.7-8C109,108.7,115.5,101.6,118.5,91.7z"/>
	<path id="XMLID_3783_" class="st2" d="M100.9,114.6c2,3.2,5,5.5,7.7,8c0.9,0.8,1.9,1.4,2.4,2.6c-2.8-1.2-5.6-2.3-8.4-3.5
		c-14.4-6-28.8-12-43.7-16.9c3.8-8.6,8.2-16.9,12.5-25.3c0.9-1.8,1.9-3.5,2.9-5.2c-0.2,5.4,2.5,9.7,5.1,14
		c4.9,8,10.9,15.2,17.2,22.1c0.3,0.3,0.6,0.5,1,0.7C98.2,112.7,99.4,113.8,100.9,114.6z"/>
	<path id="XMLID_3782_" class="st4" d="M136.8,191.8c-17-10.1-34.6-19-52.8-26.8c-11.4-4.9-22.9-9.8-34.7-13.8
		c-3.1-1.1-6.2-2-9.4-3.1c0.4-2.2,1.2-4.3,2.4-6.2c13.1,4,25.8,8.9,38.3,14.4c13,5.7,25.9,11.4,38.4,18c8.2,4.3,16.3,8.9,24.3,13.7
		C141.4,189.6,139.3,191,136.8,191.8z"/>
	<path id="XMLID_3781_" class="st3" d="M176.4,166.7c-6.9-0.2-12.9-3.2-18.7-6.3c-4.7-2.5-9.1-5.4-13.5-8.4
		c-0.3-0.2-0.5-0.6-0.8-0.9c3.7-9.5,10.6-15.1,20.7-16.8c4.7,6.1,9.6,12.1,13.1,19c1.1,2.1,2,4.2,2.5,6.5
		C180.5,163.9,180,165,176.4,166.7z"/>
	<path id="XMLID_3780_" class="st2" d="M72.4,226.1c-5.2,2.6-10.6,5-16,7.2c-3.3-2.2-7-3.5-10.7-5c-9.7-4.1-19.5-7.9-29.6-10.9
		c0.7-4.3,2.4-8.4,3.6-12.6c12.5,3.6,24.5,8.4,36.4,13.7C61.6,220.9,67,223.6,72.4,226.1z"/>
	<path id="XMLID_3779_" class="st5" d="M112.4,126.1c8.4-0.8,16.4-2.6,23.8-6.8c2.8-1.6,5.7-3.2,7.9-5.7c5.8-4.3,9.7-10,12.9-16.3
		c2.7-5.4,3.9-11.2,5.7-16.9c3.3-10.3,7.5-20.2,14.5-28.7c5-6,10.9-10.5,18.8-11.9c2.6-0.5,5.3-0.6,7.9,0.1c1.2,0.3,2,1.2,1.8,2.5
		c-0.2,1.4-1.1,2.1-2.6,2c-10-1.4-16.9,3.8-22.8,11c-6.9,8.5-11.1,18.5-13.9,29c-3.3,12.5-8.6,23.7-18.4,32.5
		c-0.1,0.1-0.2,0.3-0.3,0.4c-1.3,0.4-2.1,1.5-3.1,2.2c-8.2,6.1-17.6,9.5-27.6,10.8C115.2,129.2,113.8,127.6,112.4,126.1z"/>
	<path id="XMLID_3778_" class="st6" d="M116.5,203.5c-19.6-11.1-40.2-20.1-61.1-28.5c-7.4-3-15-5.7-22.7-7.9c0.5-2.2,1-4.3,2.4-6.2
		c11.6,3.3,22.8,7.6,33.9,12.4c13.1,5.7,26.2,11.3,38.9,18c5.2,2.7,10.3,5.7,15.4,8.5C121.3,201.5,119,202.8,116.5,203.5z"/>
	<path id="XMLID_3777_" class="st3" d="M117.1,130.2c10.1-1.4,19.4-4.7,27.6-10.8c1-0.8,1.8-1.8,3.1-2.2c4.4,4.2,8.6,8.5,12.5,13.1
		c-9.6,2.9-16.7,8.8-20.9,18.1c-3.8-2-6.8-5.1-10.5-7.3c-0.2-0.2-0.3-0.3-0.5-0.5l0,0c-0.5-1-1.5-1.6-2.4-2.3
		C123,135.6,119.8,133.3,117.1,130.2z"/>
	<path id="XMLID_3776_" class="st6" d="M95.1,215c-5.9-3.5-12.3-6.3-18.5-9.2c-10.5-4.8-21-9.6-31.9-13.6
		c-6.2-2.2-12.3-4.6-18.7-6.3c0.5-2.2,0.9-4.4,2.3-6.2c11.7,3.3,23,7.7,34.1,12.5c12.2,5.3,24.4,10.7,36.2,16.9
		c1.3,0.7,2.5,1.4,3.8,2.2C100,212.7,97.8,214.2,95.1,215z"/>
	<path id="XMLID_3775_" class="st5" d="M100.9,114.6c-1.5-0.8-2.7-1.9-3.3-3.5c6.9-4.6,12.5-10.3,15.6-18.2c0.6-1.4,1-2.9,0.9-4.5
		c1.2-5,0.3-9.7-1.4-14.4c-1.9-5.3-5.1-9.8-8.8-14c-6.7-7.5-12.1-15.8-14.2-25.9c-1-4.7-1.2-9.4,0.2-14.1c0.5-1.5,1.1-3.1,3.1-2.4
		c1.9,0.6,1.8,2,1.3,3.7c-1.9,7.6-0.1,14.7,3.3,21.4c2.6,5.2,6,9.9,9.9,14.2c7.3,8.1,12.1,17.2,11.8,28.4c0,2.1-0.5,4.1-0.8,6.2
		C115.5,101.6,109,108.7,100.9,114.6z"/>
	<path id="XMLID_3774_" class="st2" d="M48.2,236.8c-5.9,3-12.2,5.2-18.4,7.7c-2.3,0.9-4.6,1.9-7,2.5c-7,1.8-13.5-4.5-11.9-11.6
		c0.9-4,1.8-7.9,3.3-11.7c1,0.4,1.9,0.7,2.9,1.1C27.8,228.3,38.2,232.1,48.2,236.8z"/>
	<path id="XMLID_3773_" class="st5" d="M174.1,32.2c-1.6-0.2-3-0.2-4.3-0.4c-3.1-0.7-5.2,0.4-6.8,3.1c-0.7,1.2-1.7,2.2-2.6,3.2
		c-1.4,1.5-2.7,1.2-3.3-0.9c-0.6-2.1-1.1-4.2-1.5-6.3c-0.3-1.3-0.9-2.1-2.2-2.6c-2-0.7-4.1-1.5-6.1-2.4c-1.9-0.8-2-2.3-0.3-3.4
		c1.7-1.2,3.5-2.2,5.4-3.2c1.3-0.7,1.9-1.5,1.9-3c0-2.1,0.3-4.2,0.4-6.3c0.1-0.9,0.3-1.8,1.2-2.2c0.9-0.4,1.5,0.1,2.2,0.7
		c0.9,0.8,2,1.4,2.7,2.4c2.3,2.8,4.9,3.2,8.1,1.8c1-0.4,2.2-0.5,3.3-0.9c0.9-0.3,1.8-0.4,2.4,0.4c0.6,0.7,0.4,1.5,0,2.3
		c-0.8,1.9-1.6,3.9-2.5,5.8c-0.6,1.3-0.5,2.4,0.3,3.6c1.2,1.6,2.2,3.4,3.3,5.1c0.5,0.8,0.9,1.6,0.4,2.5
		C175.6,32.3,174.7,32.3,174.1,32.2z"/>
	<path id="XMLID_3772_" class="st5" d="M139.4,148.3c4.2-9.3,11.3-15.1,20.9-18.1c10.2-2.1,19.7-0.3,28.7,5
		c8.7,5.2,18.2,7.7,28.4,6.8c3.5-0.3,6.8-1.1,10-2.4c1.6-0.6,3.3-1.1,4,1c0.8,2.2-0.9,2.8-2.5,3.4c-11.5,4.4-22.9,3.5-34.2-0.8
		c-3.5-1.3-6.8-3-10-4.9c-6.5-3.7-13.4-5.3-20.9-3.9c-10.1,1.6-17,7.2-20.7,16.8C141.8,150.7,140.4,149.8,139.4,148.3z"/>
	<path id="XMLID_3771_" class="st6" d="M117.1,130.2c2.7,3,5.9,5.4,9,8c0.9,0.7,1.8,1.3,2.4,2.3c-1.3,0.2-2.3-0.7-3.3-1.2
		c-21.6-10.6-43.8-19.6-66.4-27.6c-0.9-0.3-1.8-0.5-2.8-0.8c0.7-2.2,1.5-4.4,2.9-6.2c14.9,4.9,29.3,10.9,43.7,16.9
		c2.8,1.2,5.6,2.3,8.4,3.5c0.5,0.3,0.9,0.6,1.4,0.9C113.8,127.6,115.2,129.2,117.1,130.2z"/>
	<path id="XMLID_3770_" class="st6" d="M72.4,226.1c-5.4-2.6-10.8-5.2-16.3-7.6c-11.9-5.3-23.9-10-36.4-13.7c0.7-2.1,1-4.4,2.3-6.3
		c11.3,3.4,22.4,7.5,33.2,12.2c8.4,3.7,16.7,7.4,24.9,11.6C77.6,223.8,75.1,225.2,72.4,226.1z"/>
	<path id="XMLID_3769_" class="st2" d="M196.3,111.9c-1.7-0.3-3.5-0.5-5.2-0.8c-1.7-0.3-2.8,0.3-3.4,1.9c-0.6,1.6-1.4,3.1-2.1,4.6
		c-0.4,0.8-0.9,1.4-1.9,1.2c-0.9-0.2-1.3-0.9-1.5-1.7c-0.4-1.8-0.7-3.6-1-5.4c-0.2-1.3-0.9-1.9-2.2-2.1c-1.8-0.2-3.6-0.6-5.5-0.8
		c-0.9-0.1-1.6-0.4-1.8-1.3c-0.2-0.9,0.5-1.5,1.2-1.9c1.4-0.8,2.8-1.6,4.2-2.3c2-0.8,2.3-2.2,1.9-4.1c-0.4-1.5-0.6-3-0.8-4.5
		c-0.1-0.9-0.2-1.8,0.9-2.3c0.9-0.4,1.5,0.2,2.1,0.8c1.2,1.1,2.4,2.2,3.4,3.4c1.3,1.4,2.5,1.4,4.1,0.5c1.3-0.8,2.7-1.5,4-2.2
		c0.8-0.4,1.6-1,2.4-0.2c0.8,0.8,0.5,1.8,0,2.7c-0.7,1.5-1.3,3-2.1,4.4c-0.8,1.4-0.5,2.5,0.7,3.6c1.3,1.2,2.6,2.4,3.8,3.7
		c0.5,0.5,1,1.1,0.6,1.9C197.9,111.7,197.2,112,196.3,111.9z"/>
	<path id="XMLID_3768_" class="st2" d="M190,206.7c-1.5-0.2-3.1-0.2-4.5-0.6c-1.8-0.5-2.9,0-3.6,1.7c-0.5,1.3-1.2,2.6-1.9,3.9
		c-0.4,0.8-0.8,1.7-1.9,1.6c-1.1-0.1-1.3-1-1.4-1.9c-0.2-1.5-0.7-3-0.8-4.5c-0.1-1.7-1-2.4-2.6-2.5c-1.6-0.1-3.2-0.4-4.8-0.6
		c-0.9-0.1-1.6-0.5-1.7-1.4c-0.2-0.9,0.5-1.3,1.1-1.7c1.3-0.7,2.5-1.5,3.8-2c2-0.8,2.6-2.1,2-4.2c-0.4-1.4-0.5-2.8-0.7-4.3
		c-0.1-0.7-0.1-1.4,0.7-1.9c0.8-0.5,1.4,0,1.9,0.5c1.3,1.2,2.6,2.4,3.9,3.6c0.9,1,1.9,1.1,3,0.4c1.5-0.9,3.1-1.7,4.7-2.5
		c0.7-0.4,1.3-0.5,2,0.1c0.7,0.6,0.6,1.3,0.2,2c-0.8,1.7-1.5,3.4-2.4,5c-0.6,1.1-0.4,1.9,0.5,2.8c1.3,1.2,2.6,2.4,3.8,3.7
		c0.5,0.5,1.1,1,0.7,1.9C191.6,206.5,190.9,206.8,190,206.7z"/>
	<path id="XMLID_3767_" class="st6" d="M48.2,236.8c-10.1-4.7-20.5-8.5-31-12c-1-0.3-2-0.7-2.9-1.1c0.3-2.2,0.7-4.3,1.8-6.2
		c10.1,3,19.9,6.8,29.6,10.9c3.6,1.5,7.3,2.8,10.7,5C53.8,234.7,51.2,236.1,48.2,236.8z"/>
	<path id="XMLID_3764_" class="st5" d="M225.5,98.2c-0.4,1.7,0.3,2.5,2.4,2.6c3.3,0.2,6.3,1.2,9,3.2c1.6,1.2,2.8,2.6,3.4,4.5
		c1.3,3.8-1.4,6.9-5.3,6.1c-5.1-1.1-8-4.7-10.3-9.1c-0.4-0.8,0-2.5-1.6-2.1c-1.3,0.4-1.9,1.7-1.8,3.1c0.1,3.4,2,6,3.9,8.7
		c0.6,0.9,2.6,1.7,1.4,2.8c-1.4,1.3-2.3-0.8-3.1-1.7c-2.1-2.5-3.9-5.3-4.2-8.8c-0.3-2.6,0.4-4.6,2.8-5.9c1-0.5,1.3-1.2,1.3-2.3
		c0-1.2,0.1-2.4,0.3-3.6c0.9-5.5,4.4-7.5,9.5-5.4c3.9,1.6,7.2,4.2,10.3,7.1c0.5,0.5,1.2,1,0.5,1.8c-0.7,0.7-1.4,0.2-1.9-0.3
		c-2.2-1.9-4.4-3.8-6.9-5.2c-0.4-0.2-0.7-0.4-1-0.6C228.5,90,225.6,91.6,225.5,98.2z M228.7,102.9c-2.4-0.1-2.5,0-2.4,1
		c0.4,3.3,5.5,8.4,8.9,8.7c1.1,0.1,2.3,0.3,3.1-0.9c0.8-1.2,0.4-2.3-0.2-3.4C235.8,104.6,232,103.5,228.7,102.9z"/>
	<path id="XMLID_3761_" class="st5" d="M44.7,94.7c-3.6-0.2-7.9-2.3-12.1-4.7c-0.6-0.4-1.1-0.8-0.5-1.5c0.6-0.8,1.3-0.4,1.9,0
		c3.2,1.8,6.5,3.3,10,4c0.9,0.2,1.9,0.3,2.9,0.3c2.3-0.1,3.5-1.3,3.7-3.6c0.1-1.5-0.2-2.9-0.4-4.3c-0.3-1.6-1-1.9-2.5-1.6
		c-4.3,0.8-8.5,0.3-12.2-2.4c-2.5-1.8-3.6-4.3-2.8-6.4c0.9-2.3,3-3.4,6.2-2.9c4.4,0.6,7.7,3,10.4,6.5c0.5,0.7,0.7,2.2,2,1.6
		c1.2-0.6,1.5-1.9,1.2-3.1c-0.6-2.4-2-4.4-3.8-6c-1.1-1-2.4-1.9-3.6-2.9c-0.5-0.4-1-0.9-0.5-1.6c0.4-0.5,1-0.4,1.5,0
		c3.6,2.3,6.7,5,8.1,9.2c0.7,2.2,0.5,4.4-1.5,5.9c-1.1,0.9-1.1,1.7-0.7,2.9c0.6,1.6,0.6,3.3,0.6,5C52.7,92.5,50.1,94.7,44.7,94.7z
		 M48.7,80.8c-2.5-4.2-5.8-6.8-10.6-7.4c-1.3-0.2-2.7,0.1-3.3,1.4c-0.6,1.3,0.1,2.5,0.9,3.5c1,1.1,2.2,1.8,3.6,2.3
		C42.3,81.7,45.4,81.9,48.7,80.8z"/>
	<path id="XMLID_3760_" class="st2" d="M132.8,34.5c0.1,4.2-2.8,7-7,7.3c-3.6,0.3-7.6-3.6-7.4-7.1c0.2-4.3,3.5-7.5,7.3-7.3
		C130,27.6,132.8,30.3,132.8,34.5z"/>
	<path id="XMLID_3759_" class="st2" d="M209.4,166.8c-0.1,3.7-3.6,7.2-7.2,7c-3.7-0.2-6.9-3.5-6.8-7.1c0-3.9,3.1-6.9,7.2-6.8
		C206.4,159.9,209.5,163,209.4,166.8z"/>
	<path id="XMLID_3758_" class="st2" d="M77.8,59.4c-3.6,0-6.4-2.8-6.4-6.4c0-3.5,2.9-6.2,6.4-6.2c3.4,0,6.4,2.8,6.4,6.2
		C84.3,56.6,81.5,59.4,77.8,59.4z"/>
	<path id="XMLID_3757_" class="st2" d="M208.2,81.7c-3.3,0-5.8-2.5-5.8-5.8c0-3.1,2.7-5.7,5.7-5.7c3.2,0,5.9,2.8,5.8,5.9
		C213.9,79.2,211.4,81.7,208.2,81.7z"/>
	<path id="XMLID_3756_" class="st2" d="M141.7,80.4c-2.4,0-4.5-2-4.5-4.4c0-2.3,1.9-4.3,4.3-4.4c2.4-0.1,4.4,2,4.4,4.4
		C145.9,78.4,144.1,80.3,141.7,80.4z"/>
	<path id="XMLID_3755_" class="st6" d="M128.4,140.6c0.2,0.2,0.3,0.3,0.5,0.5C128.8,140.9,128.6,140.7,128.4,140.6z"/>
	<path id="XMLID_3754_" class="st7" d="M228.7,102.9c3.4,0.6,7.1,1.7,9.3,5.5c0.6,1,1.1,2.2,0.2,3.4c-0.8,1.1-2,1-3.1,0.9
		c-3.3-0.3-8.4-5.4-8.9-8.7C226.1,102.8,226.2,102.8,228.7,102.9z"/>
</g>
</svg>
